<svg id="Ebene_1" data-name="Ebene 1" xmlns="http://www.w3.org/2000/svg" viewBox="0 0 176.64 89"><defs><style>.cls-1{fill:none;stroke:#000;stroke-miterlimit:10;stroke-width:10px}</style></defs><path class="cls-1" d="M81.64 14h90v70h-90z"/><circle class="cls-1" cx="126.64" cy="49" r="15"/><path class="cls-1" d="M138.64 49h38M76.64 49h38M155.64 14h16v16h-16zM81.64 5h10v9h-10z"/><path class="cls-1" d="M55.25 133.31A25 25 0 1 1 23.11 95c10.58-8.87 60.13-30.88 66.57-23.22s-23.85 52.66-34.43 61.53z" transform="translate(-9.18 -55.26)"/><path class="cls-1" d="M10.85 74.98l69.64-58.44M38.41 84.48l-.4-32.3-31.74-6M59.87 62.68l-.35-28.42-28.05-5.43"/></svg>